<svg width="20" height="20" viewBox="0 0 20 20" fill="none" xmlns="http://www.w3.org/2000/svg">
<path d="M6.66667 18.3333H13.3333C16.6833 18.3333 17.2833 16.9917 17.4583 15.3583L18.0833 8.69167C18.3083 6.65833 17.725 5 14.1667 5H5.83333C2.275 5 1.69167 6.65833 1.91667 8.69167L2.54167 15.3583C2.71667 16.9917 3.31667 18.3333 6.66667 18.3333Z" stroke="#8A8D8E" stroke-width="1.5" stroke-miterlimit="10" stroke-linecap="round" stroke-linejoin="round"/>
<path d="M6.66667 5.00008V4.33341C6.66667 2.85841 6.66667 1.66675 9.33333 1.66675H10.6667C13.3333 1.66675 13.3333 2.85841 13.3333 4.33341V5.00008" stroke="#8A8D8E" stroke-width="1.5" stroke-miterlimit="10" stroke-linecap="round" stroke-linejoin="round"/>
<path d="M11.6667 10.8333V11.6667C11.6667 11.675 11.6667 11.675 11.6667 11.6833C11.6667 12.5917 11.6583 13.3333 10 13.3333C8.35 13.3333 8.33333 12.6 8.33333 11.6917V10.8333C8.33333 10 8.33333 10 9.16667 10H10.8333C11.6667 10 11.6667 10 11.6667 10.8333Z" stroke="#8A8D8E" stroke-width="1.5" stroke-miterlimit="10" stroke-linecap="round" stroke-linejoin="round"/>
<path d="M18.0417 9.16675C16.1167 10.5667 13.9167 11.4001 11.6667 11.6834" stroke="#8A8D8E" stroke-width="1.5" stroke-miterlimit="10" stroke-linecap="round" stroke-linejoin="round"/>
<path d="M2.18333 9.3916C4.05833 10.6749 6.175 11.4499 8.33333 11.6916" stroke="#8A8D8E" stroke-width="1.5" stroke-miterlimit="10" stroke-linecap="round" stroke-linejoin="round"/>
</svg>
