<svg width="45" height="44" viewBox="0 0 45 44" fill="none" xmlns="http://www.w3.org/2000/svg">
<path d="M0.33371 2.55357C0.308532 1.10706 1.48408 -0.0808982 2.92704 0.00431641C9.52714 0.394089 14.5501 2.54887 17.7705 6.73921C18.0474 7.09962 17.9771 7.61121 17.6291 7.90348L5.31123 18.2484C4.90085 18.5931 4.27876 18.4929 4.00908 18.0296C1.23452 13.2632 0.45019 9.24557 0.33371 2.55357Z" fill="#E99A00"/>
<path d="M44.3329 2.58047C44.3581 1.13396 43.1825 -0.0539979 41.7396 0.0312167C35.1395 0.420989 30.1165 2.57577 26.8962 6.76611C26.6192 7.12652 26.6895 7.63811 27.0375 7.93038L39.3554 18.2753C39.7658 18.62 40.3879 18.5198 40.6575 18.0565C43.4321 13.2901 44.2164 9.27247 44.3329 2.58047Z" fill="#E99A00"/>
<path d="M35.9537 34.9417C35.9537 30.217 29.2932 26.3869 22.3156 26.3869C15.338 26.3869 8.67749 30.217 8.67749 34.9417C8.67749 45.8449 35.9537 45.8449 35.9537 34.9417Z" fill="#CE3B3B"/>
<path d="M42.5528 19.7595C42.5528 9.31543 32.6695 0.848808 22.3156 0.848808C11.9617 0.848808 2.07837 9.31543 2.07837 19.7595C2.07837 43.8614 42.5528 43.8614 42.5528 19.7595Z" fill="#FFBA33"/>
<path d="M11.3171 16.6996C11.3171 18.1587 12.4989 19.3415 13.9567 19.3415C15.4145 19.3415 16.5963 18.1587 16.5963 16.6996C16.5963 15.2405 15.4145 14.0576 13.9567 14.0576C12.4989 14.0576 11.3171 15.2405 11.3171 16.6996Z" fill="black"/>
<path d="M28.0348 16.6996C28.0348 18.1587 29.2166 19.3415 30.6744 19.3415C32.1322 19.3415 33.314 18.1587 33.314 16.6996C33.314 15.2405 32.1322 14.0576 30.6744 14.0576C29.2166 14.0576 28.0348 15.2405 28.0348 16.6996Z" fill="black"/>
<path d="M23.1955 22.424C23.1955 23.3316 24.0142 24.1852 25.1752 24.1852C26.3362 24.1852 27.1549 23.3316 27.1549 22.424C27.1549 21.9376 27.5488 21.5433 28.0348 21.5433C28.5207 21.5433 28.9147 21.9376 28.9147 22.424C28.9147 24.4345 27.1728 25.9465 25.1752 25.9465C24.0537 25.9465 23.0129 25.47 22.3156 24.6962C21.6183 25.47 20.5774 25.9465 19.456 25.9465C18.3012 25.9465 17.2525 25.4516 16.5592 24.6526C16.038 24.0519 15.7165 23.2761 15.7165 22.424C15.7165 21.9376 16.1104 21.5433 16.5964 21.5433C17.0823 21.5433 17.4762 21.9376 17.4762 22.424C17.4762 22.8214 17.6242 23.1938 17.8879 23.4977C18.2428 23.9067 18.8046 24.1852 19.456 24.1852C20.617 24.1852 21.4357 23.3316 21.4357 22.424V18.9014H23.1955V22.424Z" fill="black"/>
<path fill-rule="evenodd" clip-rule="evenodd" d="M24.9553 19.3421C24.9553 20.3148 24.1674 21.1034 23.1955 21.1034L21.4357 21.1034C20.4639 21.1034 19.676 20.3148 19.676 19.3421C19.676 18.3694 20.4638 17.5808 21.4357 17.5808L23.1955 17.5808C24.1674 17.5808 24.9553 18.3694 24.9553 19.3421Z" fill="#CE3B3B"/>
<path d="M1.30916 20.442C1.14296 20.899 1.3784 21.4044 1.83504 21.5707L5.55571 22.9261C6.01235 23.0925 6.51726 22.8568 6.68346 22.3998C6.84966 21.9427 6.61422 21.4374 6.15758 21.271L2.43691 19.9157C1.98028 19.7493 1.47536 19.985 1.30916 20.442Z" fill="black"/>
<path d="M6.99435 25.8044C7.43898 25.6082 7.95837 25.8098 8.15444 26.2549C8.35052 26.6999 8.14902 27.2197 7.70439 27.416L4.08154 29.0149C3.63691 29.2112 3.11752 29.0095 2.92145 28.5645C2.72538 28.1195 2.92687 27.5996 3.37151 27.4034L6.99435 25.8044Z" fill="black"/>
<path d="M9.39523 30.2294C9.73885 29.8855 10.296 29.8855 10.6396 30.2294C10.9832 30.5733 10.9832 31.1309 10.6396 31.4748L7.83981 34.277C7.4962 34.6209 6.93909 34.6209 6.59548 34.277C6.25186 33.9331 6.25186 33.3755 6.59548 33.0316L9.39523 30.2294Z" fill="black"/>
<path d="M35.3136 30.2294C34.97 29.8855 34.4129 29.8855 34.0693 30.2294C33.7257 30.5733 33.7257 31.1309 34.0693 31.4748L36.8691 34.277C37.2127 34.6209 37.7698 34.6209 38.1134 34.277C38.457 33.9331 38.457 33.3755 38.1134 33.0316L35.3136 30.2294Z" fill="black"/>
<path d="M36.5544 26.2549C36.7505 25.8098 37.2699 25.6082 37.7145 25.8044L41.3374 27.4034C41.782 27.5996 41.9835 28.1195 41.7874 28.5645C41.5914 29.0095 41.072 29.2112 40.6273 29.0149L37.0045 27.416C36.5599 27.2197 36.3584 26.6999 36.5544 26.2549Z" fill="black"/>
<path d="M42.8738 21.5707C43.3305 21.4044 43.5659 20.899 43.3997 20.442C43.2335 19.985 42.7286 19.7493 42.272 19.9157L38.5513 21.271C38.0947 21.4374 37.8592 21.9427 38.0254 22.3998C38.1916 22.8568 38.6965 23.0925 39.1532 22.9261L42.8738 21.5707Z" fill="black"/>
<path d="M26.275 40.0371C26.275 42.2258 24.5023 44 22.3156 44C20.1288 44 18.3561 42.2258 18.3561 40.0371C18.3561 37.8485 20.1288 36.0742 22.3156 36.0742C24.5023 36.0742 26.275 37.8485 26.275 40.0371Z" fill="#FF7A00"/>
</svg>
