<svg width="20" height="20" viewBox="0 0 20 20" fill="none" xmlns="http://www.w3.org/2000/svg">
<path d="M8.42499 9.29175H6.21666C5.69166 9.29175 5.26667 9.71671 5.26667 10.2417V14.5084H8.42499V9.29175V9.29175Z" stroke="#8A8D8E" stroke-width="1.5" stroke-miterlimit="10" stroke-linecap="round" stroke-linejoin="round"/>
<path d="M10.6344 5.5H9.3677C8.8427 5.5 8.41771 5.92501 8.41771 6.45001V14.5H11.5761V6.45001C11.5761 5.92501 11.1594 5.5 10.6344 5.5Z" stroke="#8A8D8E" stroke-width="1.5" stroke-miterlimit="10" stroke-linecap="round" stroke-linejoin="round"/>
<path d="M13.7901 10.7083H11.5818V14.5H14.7401V11.6583C14.7318 11.1333 14.3068 10.7083 13.7901 10.7083Z" stroke="#8A8D8E" stroke-width="1.5" stroke-miterlimit="10" stroke-linecap="round" stroke-linejoin="round"/>
<path d="M7.5 18.3334H12.5C16.6667 18.3334 18.3333 16.6667 18.3333 12.5001V7.50008C18.3333 3.33341 16.6667 1.66675 12.5 1.66675H7.5C3.33333 1.66675 1.66667 3.33341 1.66667 7.50008V12.5001C1.66667 16.6667 3.33333 18.3334 7.5 18.3334Z" stroke="#8A8D8E" stroke-width="1.5" stroke-linecap="round" stroke-linejoin="round"/>
</svg>
