<svg width="558" height="184" viewBox="0 0 558 184" fill="none" xmlns="http://www.w3.org/2000/svg">
<path d="M42.7066 139.779L94.5375 140.032C97.4945 140.032 100.24 140.623 102.775 141.806C105.394 142.989 107.633 144.552 109.491 146.495C111.434 148.438 112.955 150.719 114.053 153.338C115.152 155.957 115.701 158.703 115.701 161.575C115.701 164.617 115.152 167.447 114.053 170.066C112.955 172.601 111.434 174.797 109.491 176.656C107.633 178.43 105.394 179.866 102.775 180.965C100.24 181.978 97.4945 182.485 94.5375 182.485H22.177C18.9666 182.147 15.9675 181.387 13.1795 180.204C10.476 179.021 8.1527 177.416 6.20957 175.389C4.26644 173.361 2.74573 170.911 1.64744 168.039C0.549145 165.082 0 161.66 0 157.774V41.1859C0 38.229 0.549145 35.4832 1.64744 32.9487C2.74573 30.4142 4.26644 28.2176 6.20957 26.359C8.1527 24.4158 10.3915 22.9374 12.926 21.9236C15.545 20.8253 18.333 20.2761 21.29 20.2761C24.2469 20.2761 27.0349 20.8253 29.6539 21.9236C32.2729 22.9374 34.5539 24.4158 36.4971 26.359C38.4402 28.2176 39.9609 30.4142 41.0592 32.9487C42.1575 35.4832 42.7066 38.229 42.7066 41.1859V139.779Z" fill="#4ABDE8"/>
<path d="M164.902 125.078C164.902 127.528 165.325 129.767 166.169 131.795C167.099 133.823 168.366 135.554 169.971 136.991C171.576 138.342 173.435 139.398 175.547 140.159C177.744 140.919 180.067 141.299 182.517 141.299C187.248 141.299 190.796 139.821 193.162 136.864C195.612 133.823 196.837 129.852 196.837 124.952V85.6667C196.837 82.7098 197.428 79.964 198.611 77.4295C199.794 74.895 201.399 72.6984 203.427 70.8398C205.454 68.8966 207.778 67.3759 210.397 66.2776C213.016 65.1793 215.761 64.6302 218.634 64.6302C221.506 64.6302 224.21 65.1793 226.744 66.2776C229.279 67.3759 231.475 68.8966 233.334 70.8398C235.193 72.6984 236.671 74.9372 237.77 77.5562C238.868 80.0907 239.417 82.7942 239.417 85.6667V123.684C239.417 131.964 237.981 139.779 235.108 147.129C232.32 154.394 228.392 160.773 223.323 166.264C218.338 171.756 212.34 176.107 205.328 179.317C198.4 182.443 190.796 184.006 182.517 184.006C174.322 184.006 166.55 182.443 159.199 179.317C151.934 176.191 145.555 171.967 140.064 166.645C134.572 161.238 130.221 154.944 127.011 147.762C123.801 140.497 122.195 132.809 122.195 124.698V85.6667C122.195 82.7942 122.745 80.0907 123.843 77.5562C124.941 74.9372 126.462 72.6984 128.405 70.8398C130.348 68.8966 132.587 67.3759 135.122 66.2776C137.656 65.1793 140.402 64.6302 143.359 64.6302C146.231 64.6302 148.977 65.1793 151.596 66.2776C154.215 67.3759 156.496 68.8966 158.439 70.8398C160.467 72.6984 162.03 74.9372 163.128 77.5562C164.311 80.0907 164.902 82.7942 164.902 85.6667V125.078Z" fill="#4ABDE8"/>
<path d="M349.375 20.2761C352.332 20.2761 355.078 20.8675 357.613 22.0503C360.232 23.1486 362.47 24.6693 364.329 26.6124C366.272 28.4711 367.751 30.7099 368.765 33.3289C369.863 35.9479 370.412 38.6936 370.412 41.5661C370.412 44.523 369.863 47.311 368.765 49.93C367.666 52.4645 366.146 54.7033 364.202 56.6465C362.344 58.5896 360.147 60.1525 357.613 61.3353C355.078 62.4336 352.332 62.9828 349.375 62.9828H296.911V83.8925H337.97C340.927 83.8925 343.673 84.4839 346.207 85.6667C348.826 86.8495 351.107 88.4547 353.051 90.4823C354.994 92.4254 356.514 94.7487 357.613 97.4522C358.711 100.071 359.26 102.859 359.26 105.816C359.26 108.773 358.711 111.519 357.613 114.053C356.514 116.588 354.994 118.784 353.051 120.643C351.107 122.417 348.826 123.853 346.207 124.952C343.673 125.966 340.927 126.472 337.97 126.472H296.911V161.449C296.911 164.406 296.362 167.151 295.263 169.686C294.165 172.22 292.644 174.459 290.701 176.402C288.758 178.261 286.477 179.74 283.858 180.838C281.239 181.936 278.451 182.485 275.494 182.485C272.537 182.485 269.749 181.936 267.13 180.838C264.511 179.74 262.23 178.261 260.287 176.402C258.428 174.459 256.95 172.22 255.852 169.686C254.753 167.151 254.204 164.406 254.204 161.449V40.8057C254.289 38.5247 254.711 36.2013 255.472 33.8358C256.232 31.3858 257.457 29.1892 259.147 27.2461C260.836 25.2184 262.991 23.571 265.61 22.3037C268.313 20.952 271.608 20.2761 275.494 20.2761H349.375Z" fill="#4ABDE8"/>
<path d="M424.526 161.449C424.526 164.321 423.977 167.067 422.878 169.686C421.78 172.22 420.259 174.459 418.316 176.402C416.458 178.261 414.219 179.74 411.6 180.838C409.065 181.936 406.32 182.485 403.363 182.485C400.406 182.485 397.618 181.936 394.999 180.838C392.464 179.74 390.183 178.261 388.156 176.402C386.212 174.459 384.649 172.22 383.467 169.686C382.368 167.067 381.819 164.321 381.819 161.449V85.6667C381.819 82.7942 382.368 80.0907 383.467 77.5562C384.649 74.9372 386.212 72.6984 388.156 70.8398C390.183 68.8966 392.506 67.3759 395.125 66.2776C397.829 65.1793 400.701 64.6302 403.743 64.6302C406.7 64.6302 409.446 65.1793 411.98 66.2776C414.515 67.3759 416.711 68.8966 418.57 70.8398C420.428 72.6984 421.865 74.9372 422.878 77.5562C423.977 80.0907 424.526 82.7942 424.526 85.6667V161.449Z" fill="#4ABDE8"/>
<path d="M558 162.082C558 165.039 557.451 167.785 556.353 170.32C555.254 172.854 553.776 175.051 551.917 176.909C550.058 178.768 547.82 180.246 545.201 181.345C542.666 182.359 539.963 182.865 537.09 182.865C534.133 182.865 531.345 182.359 528.726 181.345C526.107 180.246 523.784 178.768 521.756 176.909C519.813 175.051 518.25 172.854 517.068 170.32C515.885 167.785 515.293 165.039 515.293 162.082V121.15C514.955 116.757 513.266 113.124 510.224 110.252C507.183 107.295 503.381 105.816 498.819 105.816C494.003 105.816 490.202 107.337 487.414 110.378C484.71 113.335 483.358 117.137 483.358 121.784V162.082C483.358 165.039 482.809 167.785 481.711 170.32C480.613 172.854 479.134 175.051 477.276 176.909C475.417 178.768 473.22 180.246 470.686 181.345C468.151 182.359 465.448 182.865 462.575 182.865C459.618 182.865 456.83 182.359 454.211 181.345C451.592 180.246 449.269 178.768 447.242 176.909C445.298 175.051 443.735 172.854 442.553 170.32C441.37 167.785 440.779 165.039 440.779 162.082V121.91C440.779 113.8 442.257 106.196 445.214 99.0996C448.255 91.9185 452.353 85.6667 457.506 80.3442C462.744 75.0217 468.912 70.8398 476.008 67.7983C483.105 64.6724 490.709 63.1095 498.819 63.1095C507.014 63.1095 514.702 64.6724 521.883 67.7983C529.064 70.8398 535.316 75.0217 540.639 80.3442C546.046 85.6667 550.27 91.9185 553.311 99.0996C556.437 106.196 558 113.8 558 121.91V162.082Z" fill="#4ABDE8"/>
<path d="M399.729 8.15418C401.618 4.65348 406.64 4.65348 408.529 8.15419L414.485 19.1917C414.939 20.0331 415.625 20.7268 416.461 21.1903L427.499 27.3084C430.933 29.2122 430.933 34.1507 427.499 36.0546L416.461 42.1726C415.625 42.6362 414.939 43.3298 414.485 44.1713L408.529 55.2088C406.64 58.7095 401.618 58.7095 399.729 55.2087L393.773 44.1713C393.319 43.3298 392.633 42.6362 391.796 42.1726L380.759 36.0546C377.325 34.1507 377.325 29.2122 380.759 27.3084L391.796 21.1903C392.633 20.7268 393.319 20.0331 393.773 19.1917L399.729 8.15418Z" fill="#FAE27C"/>
</svg>
