<svg width="66" height="66" viewBox="0 0 66 66" fill="none" xmlns="http://www.w3.org/2000/svg">
<path d="M65.9984 32.6785C66.176 50.903 51.546 65.8208 33.3215 65.9984C15.097 66.176 0.179168 51.546 0.00159946 33.3215C-0.175969 15.097 14.454 0.179168 32.6785 0.00159946C50.903 -0.175969 65.8208 14.454 65.9984 32.6785Z" fill="#4ABDE8"/>
<path d="M65.9984 32.6785C66.176 50.903 51.546 65.8208 33.3215 65.9984C15.097 66.176 0.179168 51.546 0.00159946 33.3215C-0.175969 15.097 14.454 0.179168 32.6785 0.00159946C50.903 -0.175969 65.8208 14.454 65.9984 32.6785Z" fill="#4ABDE8"/>
<path d="M62.4986 32.7126C62.6573 49.0042 49.579 62.3398 33.2874 62.4986C16.9958 62.6573 3.66017 49.579 3.50143 33.2874C3.3427 16.9958 16.421 3.66017 32.7126 3.50143C49.0042 3.3427 62.3398 16.421 62.4986 32.7126Z" stroke="#C3EBFA" stroke-width="7"/>
<path d="M29.5208 15.321C30.9176 12.6711 34.6994 12.6343 36.1475 15.2564L40.7135 23.524C41.0616 24.1543 41.5831 24.6715 42.2162 25.0144L50.5721 29.5404C53.1724 30.9487 53.2086 34.6675 50.6363 36.1262L42.3701 40.8142C41.7438 41.1693 41.2325 41.6967 40.8967 42.3336L36.4928 50.6885C35.096 53.3384 31.3142 53.3753 29.866 50.7531L25.3001 42.4856C24.952 41.8553 24.4305 41.338 23.7974 40.9951L15.4414 36.4692C12.8412 35.0608 12.805 31.3421 15.3773 29.8833L23.6435 25.1954C24.2698 24.8402 24.7811 24.3129 25.1168 23.6759L29.5208 15.321Z" fill="#FAE27C"/>
<path d="M29.5208 15.321C30.9176 12.6711 34.6994 12.6343 36.1475 15.2564L40.7135 23.524C41.0616 24.1543 41.5831 24.6715 42.2162 25.0144L50.5721 29.5404C53.1724 30.9487 53.2086 34.6675 50.6363 36.1262L42.3701 40.8142C41.7438 41.1693 41.2325 41.6967 40.8967 42.3336L36.4928 50.6885C35.096 53.3384 31.3142 53.3753 29.866 50.7531L25.3001 42.4856C24.952 41.8553 24.4305 41.338 23.7974 40.9951L15.4414 36.4692C12.8412 35.0608 12.805 31.3421 15.3773 29.8833L23.6435 25.1954C24.2698 24.8402 24.7811 24.3129 25.1168 23.6759L29.5208 15.321Z" fill="#FAE27C"/>
</svg>
