<svg width="36" height="36" viewBox="0 0 36 36" fill="none" xmlns="http://www.w3.org/2000/svg">
<path d="M35.9991 17.8246C36.096 27.7653 28.116 35.9023 18.1754 35.9991C8.23473 36.096 0.0977282 28.116 0.00087243 18.1754C-0.0959833 8.23473 7.88399 0.0977282 17.8246 0.00087243C27.7653 -0.0959833 35.9023 7.88399 35.9991 17.8246Z" fill="#4ABDE8"/>
<path d="M35.9991 17.8246C36.096 27.7653 28.116 35.9023 18.1754 35.9991C8.23473 36.096 0.0977282 28.116 0.00087243 18.1754C-0.0959833 8.23473 7.88399 0.0977282 17.8246 0.00087243C27.7653 -0.0959833 35.9023 7.88399 35.9991 17.8246Z" fill="#4ABDE8"/>
<path d="M33.7492 17.8466C33.834 26.5446 26.8515 33.6645 18.1535 33.7492C9.45539 33.834 2.33551 26.8515 2.25077 18.1535C2.16602 9.45539 9.14849 2.33551 17.8466 2.25077C26.5446 2.16602 33.6645 9.14849 33.7492 17.8466Z" stroke="#C3EBFA" stroke-width="4.5"/>
<path d="M16.1022 8.35927C16.8641 6.91387 18.9269 6.89378 19.7168 8.32405L22.2073 12.8336C22.3972 13.1774 22.6816 13.4595 23.0269 13.6466L27.5847 16.1153C29.003 16.8835 29.0228 18.9119 27.6197 19.7076L23.1109 22.2646C22.7693 22.4584 22.4904 22.746 22.3072 23.0934L19.9051 27.6507C19.1432 29.096 17.0804 29.1161 16.2905 27.6859L13.8 23.1763C13.6101 22.8325 13.3257 22.5504 12.9803 22.3633L8.42254 19.8946C7.00423 19.1264 6.98447 17.098 8.38754 16.3023L12.8964 13.7453C13.238 13.5516 13.5169 13.2639 13.7 12.9165L16.1022 8.35927Z" fill="#FAE27C"/>
<path d="M16.1022 8.35927C16.8641 6.91387 18.9269 6.89378 19.7168 8.32405L22.2073 12.8336C22.3972 13.1774 22.6816 13.4595 23.0269 13.6466L27.5847 16.1153C29.003 16.8835 29.0228 18.9119 27.6197 19.7076L23.1109 22.2646C22.7693 22.4584 22.4904 22.746 22.3072 23.0934L19.9051 27.6507C19.1432 29.096 17.0804 29.1161 16.2905 27.6859L13.8 23.1763C13.6101 22.8325 13.3257 22.5504 12.9803 22.3633L8.42254 19.8946C7.00423 19.1264 6.98447 17.098 8.38754 16.3023L12.8964 13.7453C13.238 13.5516 13.5169 13.2639 13.7 12.9165L16.1022 8.35927Z" fill="#FAE27C"/>
</svg>
