<svg width="52" height="52" viewBox="0 0 52 52" fill="none" xmlns="http://www.w3.org/2000/svg">
<path d="M51.9987 25.7467C52.1386 40.1054 40.612 51.8588 26.2533 51.9987C11.8946 52.1386 0.141163 40.612 0.00126018 26.2533C-0.138643 11.8946 11.388 0.141163 25.7467 0.00126018C40.1054 -0.138643 51.8588 11.388 51.9987 25.7467Z" fill="#4ABDE8"/>
<path d="M51.9987 25.7467C52.1386 40.1054 40.612 51.8588 26.2533 51.9987C11.8946 52.1386 0.141163 40.612 0.00126018 26.2533C-0.138643 11.8946 11.388 0.141163 25.7467 0.00126018C40.1054 -0.138643 51.8588 11.388 51.9987 25.7467Z" fill="#4ABDE8"/>
<path d="M48.9989 25.7759C49.1226 38.4778 38.926 48.8751 26.2241 48.9989C13.5222 49.1226 3.12488 38.926 3.00112 26.2241C2.87736 13.5222 13.074 3.12488 25.7759 3.00112C38.4778 2.87736 48.8751 13.074 48.9989 25.7759Z" stroke="#C3EBFA" stroke-width="6"/>
<path d="M23.2588 12.0722C24.3593 9.98445 27.3389 9.95543 28.4799 12.0214L32.0773 18.5352C32.3515 19.0318 32.7624 19.4393 33.2612 19.7095L39.8447 23.2754C41.8934 24.385 41.9219 27.3149 39.8953 28.4642L33.3825 32.1577C32.8891 32.4376 32.4862 32.8531 32.2217 33.3549L28.7519 39.9376C27.6514 42.0254 24.6718 42.0544 23.5308 39.9884L19.9334 33.4746C19.6592 32.9781 19.2483 32.5705 18.7495 32.3003L12.166 28.7344C10.1173 27.6248 10.0888 24.6949 12.1154 23.5455L18.6282 19.8521C19.1216 19.5722 19.5245 19.1568 19.789 18.6549L23.2588 12.0722Z" fill="#FAE27C"/>
<path d="M23.2588 12.0722C24.3593 9.98445 27.3389 9.95543 28.4799 12.0214L32.0773 18.5352C32.3515 19.0318 32.7624 19.4393 33.2612 19.7095L39.8447 23.2754C41.8934 24.385 41.9219 27.3149 39.8953 28.4642L33.3825 32.1577C32.8891 32.4376 32.4862 32.8531 32.2217 33.3549L28.7519 39.9376C27.6514 42.0254 24.6718 42.0544 23.5308 39.9884L19.9334 33.4746C19.6592 32.9781 19.2483 32.5705 18.7495 32.3003L12.166 28.7344C10.1173 27.6248 10.0888 24.6949 12.1154 23.5455L18.6282 19.8521C19.1216 19.5722 19.5245 19.1568 19.789 18.6549L23.2588 12.0722Z" fill="#FAE27C"/>
</svg>
