<svg width="32" height="32" viewBox="0 0 32 32" fill="none" xmlns="http://www.w3.org/2000/svg">
<path d="M31.9992 15.8441C32.0853 24.6802 24.992 31.9131 16.1559 31.9992C7.31976 32.0853 0.0868695 24.992 0.000775494 16.1559C-0.0853185 7.31976 7.00799 0.0868695 15.8441 0.000775494C24.6802 -0.0853185 31.9131 7.00799 31.9992 15.8441Z" fill="#4ABDE8"/>
<path d="M31.9992 15.8441C32.0853 24.6802 24.992 31.9131 16.1559 31.9992C7.31976 32.0853 0.0868695 24.992 0.000775494 16.1559C-0.0853185 7.31976 7.00799 0.0868695 15.8441 0.000775494C24.6802 -0.0853185 31.9131 7.00799 31.9992 15.8441Z" fill="#4ABDE8"/>
<path d="M29.9993 15.8636C30.0747 23.5952 23.868 29.924 16.1364 29.9993C8.40479 30.0747 2.07601 23.868 2.00068 16.1364C1.92535 8.40479 8.13199 2.07601 15.8636 2.00068C23.5952 1.92535 29.924 8.13199 29.9993 15.8636Z" stroke="#C3EBFA" stroke-width="4"/>
<path d="M14.3132 7.43084C14.9905 6.14604 16.824 6.12818 17.5262 7.39954L19.74 11.408C19.9087 11.7136 20.1616 11.9644 20.4686 12.1307L24.5199 14.3251C25.7806 15.0079 25.7982 16.8109 24.551 17.5182L20.5432 19.7911C20.2395 19.9634 19.9916 20.219 19.8288 20.5279L17.6936 24.5787C17.0163 25.8635 15.1827 25.8814 14.4806 24.61L12.2668 20.6015C12.0981 20.296 11.8452 20.0452 11.5382 19.8789L7.48686 17.6845C6.22615 17.0016 6.20858 15.1986 7.45575 14.4913L11.4636 12.2184C11.7673 12.0462 12.0152 11.7905 12.178 11.4817L14.3132 7.43084Z" fill="#FAE27C"/>
<path d="M14.3132 7.43084C14.9905 6.14604 16.824 6.12818 17.5262 7.39954L19.74 11.408C19.9087 11.7136 20.1616 11.9644 20.4686 12.1307L24.5199 14.3251C25.7806 15.0079 25.7982 16.8109 24.551 17.5182L20.5432 19.7911C20.2395 19.9634 19.9916 20.219 19.8288 20.5279L17.6936 24.5787C17.0163 25.8635 15.1827 25.8814 14.4806 24.61L12.2668 20.6015C12.0981 20.296 11.8452 20.0452 11.5382 19.8789L7.48686 17.6845C6.22615 17.0016 6.20858 15.1986 7.45575 14.4913L11.4636 12.2184C11.7673 12.0462 12.0152 11.7905 12.178 11.4817L14.3132 7.43084Z" fill="#FAE27C"/>
</svg>
