<svg width="102" height="102" viewBox="0 0 102 102" fill="none" xmlns="http://www.w3.org/2000/svg">
<path d="M101.998 50.5031C102.272 78.6683 79.662 101.723 51.4969 101.998C23.3317 102.272 0.276897 79.662 0.00247189 51.4969C-0.271953 23.3317 22.338 0.276897 50.5031 0.00247189C78.6683 -0.271953 101.723 22.338 101.998 50.5031Z" fill="#4ABDE8"/>
<path d="M101.998 50.5031C102.272 78.6683 79.662 101.723 51.4969 101.998C23.3317 102.272 0.276897 79.662 0.00247189 51.4969C-0.271953 23.3317 22.338 0.276897 50.5031 0.00247189C78.6683 -0.271953 101.723 22.338 101.998 50.5031Z" fill="#4ABDE8"/>
<path d="M96.9978 50.5518C97.2453 75.9557 76.852 96.7502 51.4482 96.9978C26.0443 97.2453 5.24975 76.852 5.00223 51.4482C4.75471 26.0443 25.148 5.24975 50.5518 5.00223C75.9557 4.75471 96.7502 25.148 96.9978 50.5518Z" stroke="#C3EBFA" stroke-width="10"/>
<path d="M45.6233 23.6754C47.7819 19.5801 53.6265 19.5232 55.8646 23.5756L62.921 36.3527C63.459 37.3268 64.2649 38.1262 65.2434 38.6561L78.1571 45.6507C82.1757 47.8273 82.2317 53.5745 78.2563 55.8289L65.4813 63.0739C64.5134 63.6228 63.7231 64.4378 63.2042 65.4222L56.3981 78.3343C54.2394 82.4296 48.3948 82.4865 46.1568 78.4341L39.1003 65.657C38.5624 64.6829 37.7564 63.8835 36.778 63.3535L23.8642 56.3589C19.8457 54.1823 19.7897 48.4352 23.7651 46.1807L36.5401 38.9358C37.508 38.3869 38.2982 37.5719 38.8171 36.5876L45.6233 23.6754Z" fill="#FAE27C"/>
<path d="M45.6233 23.6754C47.7819 19.5801 53.6265 19.5232 55.8646 23.5756L62.921 36.3527C63.459 37.3268 64.2649 38.1262 65.2434 38.6561L78.1571 45.6507C82.1757 47.8273 82.2317 53.5745 78.2563 55.8289L65.4813 63.0739C64.5134 63.6228 63.7231 64.4378 63.2042 65.4222L56.3981 78.3343C54.2394 82.4296 48.3948 82.4865 46.1568 78.4341L39.1003 65.657C38.5624 64.6829 37.7564 63.8835 36.778 63.3535L23.8642 56.3589C19.8457 54.1823 19.7897 48.4352 23.7651 46.1807L36.5401 38.9358C37.508 38.3869 38.2982 37.5719 38.8171 36.5876L45.6233 23.6754Z" fill="#FAE27C"/>
</svg>
