<svg width="200" height="200" viewBox="0 0 200 200" fill="none" xmlns="http://www.w3.org/2000/svg">
<path d="M199.995 99.0257C200.533 154.252 156.2 199.457 100.974 199.995C45.7485 200.533 0.542934 156.2 0.00484683 100.974C-0.533241 45.7485 43.7999 0.542934 99.0257 0.00484683C154.252 -0.533241 199.457 43.7999 199.995 99.0257Z" fill="#4ABDE8"/>
<path d="M199.995 99.0257C200.533 154.252 156.2 199.457 100.974 199.995C45.7485 200.533 0.542934 156.2 0.00484683 100.974C-0.533241 45.7485 43.7999 0.542934 99.0257 0.00484683C154.252 -0.533241 199.457 43.7999 199.995 99.0257Z" fill="#4ABDE8"/>
<path d="M190.996 99.1134C191.485 149.369 151.142 190.506 100.887 190.996C50.6311 191.485 9.49408 151.142 9.00442 100.887C8.51476 50.6311 48.8579 9.49408 99.1134 9.00442C149.369 8.51476 190.506 48.8579 190.996 99.1134Z" stroke="#C3EBFA" stroke-width="18"/>
<path d="M89.4571 46.4177C93.6898 38.3878 105.15 38.2761 109.538 46.2221L123.374 71.2752C124.429 73.1851 126.009 74.7526 127.928 75.7918L153.249 89.5066C161.128 93.7745 161.238 105.043 153.443 109.464L128.394 123.67C126.496 124.746 124.947 126.344 123.93 128.274L110.584 153.592C106.352 161.622 94.8915 161.734 90.5032 153.788L76.667 128.735C75.6122 126.825 74.0319 125.257 72.1134 124.218L46.7923 110.503C38.9128 106.235 38.803 94.9663 46.5978 90.5458L71.6469 76.3401C73.5448 75.2638 75.0943 73.6658 76.1117 71.7357L89.4571 46.4177Z" fill="#FAE27C"/>
<path d="M89.4571 46.4177C93.6898 38.3878 105.15 38.2761 109.538 46.2221L123.374 71.2752C124.429 73.1851 126.009 74.7526 127.928 75.7918L153.249 89.5066C161.128 93.7745 161.238 105.043 153.443 109.464L128.394 123.67C126.496 124.746 124.947 126.344 123.93 128.274L110.584 153.592C106.352 161.622 94.8915 161.734 90.5032 153.788L76.667 128.735C75.6122 126.825 74.0319 125.257 72.1134 124.218L46.7923 110.503C38.9128 106.235 38.803 94.9663 46.5978 90.5458L71.6469 76.3401C73.5448 75.2638 75.0943 73.6658 76.1117 71.7357L89.4571 46.4177Z" fill="#FAE27C"/>
</svg>
