<svg width="28" height="28" viewBox="0 0 28 28" fill="none" xmlns="http://www.w3.org/2000/svg">
<path d="M27.9993 13.8636C28.0747 21.5952 21.868 27.924 14.1364 27.9993C6.40479 28.0747 0.0760108 21.868 0.000678557 14.1364C-0.0746537 6.40479 6.13199 0.0760108 13.8636 0.000678557C21.5952 -0.0746537 27.924 6.13199 27.9993 13.8636Z" fill="#4ABDE8"/>
<path d="M27.9993 13.8636C28.0747 21.5952 21.868 27.924 14.1364 27.9993C6.40479 28.0747 0.0760108 21.868 0.000678557 14.1364C-0.0746537 6.40479 6.13199 0.0760108 13.8636 0.000678557C21.5952 -0.0746537 27.924 6.13199 27.9993 13.8636Z" fill="#4ABDE8"/>
<path d="M26.2494 13.8807C26.3153 20.6458 20.8845 26.1835 14.1194 26.2494C7.35419 26.3153 1.81651 20.8845 1.7506 14.1194C1.68468 7.35419 7.11549 1.81651 13.8807 1.7506C20.6458 1.68468 26.1835 7.11549 26.2494 13.8807Z" stroke="#C3EBFA" stroke-width="3.5"/>
<path d="M12.524 6.50266C13.1166 5.37846 14.721 5.36283 15.3353 6.47527L17.2724 9.9827C17.4201 10.2501 17.6413 10.4695 17.9099 10.615L21.4549 12.5351C22.558 13.1326 22.5734 14.7102 21.4821 15.3291L17.9752 17.3179C17.7095 17.4686 17.4926 17.6923 17.3502 17.9626L15.4818 21.5071C14.8892 22.6313 13.2848 22.6469 12.6705 21.5345L10.7334 18.027C10.5857 17.7596 10.3645 17.5402 10.0959 17.3947L6.55094 15.4746C5.44782 14.8771 5.43245 13.2995 6.52372 12.6806L10.0306 10.6918C10.2963 10.5411 10.5132 10.3174 10.6557 10.0472L12.524 6.50266Z" fill="#FAE27C"/>
<path d="M12.524 6.50266C13.1166 5.37846 14.721 5.36283 15.3353 6.47527L17.2724 9.9827C17.4201 10.2501 17.6413 10.4695 17.9099 10.615L21.4549 12.5351C22.558 13.1326 22.5734 14.7102 21.4821 15.3291L17.9752 17.3179C17.7095 17.4686 17.4926 17.6923 17.3502 17.9626L15.4818 21.5071C14.8892 22.6313 13.2848 22.6469 12.6705 21.5345L10.7334 18.027C10.5857 17.7596 10.3645 17.5402 10.0959 17.3947L6.55094 15.4746C5.44782 14.8771 5.43245 13.2995 6.52372 12.6806L10.0306 10.6918C10.2963 10.5411 10.5132 10.3174 10.6557 10.0472L12.524 6.50266Z" fill="#FAE27C"/>
</svg>
