<svg width="24" height="24" viewBox="0 0 24 24" fill="none" xmlns="http://www.w3.org/2000/svg">
<path d="M23.9994 11.8831C24.064 18.5102 18.744 23.9348 12.1169 23.9994C5.48982 24.064 0.0651521 18.744 0.00058162 12.1169C-0.0639889 5.48982 5.25599 0.0651521 11.8831 0.00058162C18.5102 -0.0639889 23.9348 5.25599 23.9994 11.8831Z" fill="#4ABDE8"/>
<path d="M23.9994 11.8831C24.064 18.5102 18.744 23.9348 12.1169 23.9994C5.48982 24.064 0.0651521 18.744 0.00058162 12.1169C-0.0639889 5.48982 5.25599 0.0651521 11.8831 0.00058162C18.5102 -0.0639889 23.9348 5.25599 23.9994 11.8831Z" fill="#4ABDE8"/>
<path d="M22.4995 11.8977C22.556 17.6964 17.901 22.443 12.1023 22.4995C6.30359 22.556 1.55701 17.901 1.50051 12.1023C1.44401 6.30359 6.09899 1.55701 11.8977 1.50051C17.6964 1.44401 22.443 6.09899 22.4995 11.8977Z" stroke="#C3EBFA" stroke-width="3"/>
<path d="M10.7348 5.57447C11.2427 4.61088 12.6179 4.59748 13.1445 5.55099L14.8049 8.55737C14.9314 8.78656 15.1211 8.97466 15.3513 9.09936L18.3898 10.7451C19.3354 11.2573 19.3485 12.6095 18.4132 13.14L15.4073 14.8447C15.1795 14.9739 14.9936 15.1656 14.8715 15.3972L13.2701 18.4354C12.7621 19.399 11.3869 19.4124 10.8603 18.4589L9.2 15.4525C9.07342 15.2233 8.88378 15.0352 8.65356 14.9105L5.61502 13.2647C4.66949 12.7526 4.65631 11.4003 5.59169 10.8698L8.59758 9.16516C8.82533 9.036 9.01126 8.84424 9.13335 8.61263L10.7348 5.57447Z" fill="#FAE27C"/>
<path d="M10.7348 5.57447C11.2427 4.61088 12.6179 4.59748 13.1445 5.55099L14.8049 8.55737C14.9314 8.78656 15.1211 8.97466 15.3513 9.09936L18.3898 10.7451C19.3354 11.2573 19.3485 12.6095 18.4132 13.14L15.4073 14.8447C15.1795 14.9739 14.9936 15.1656 14.8715 15.3972L13.2701 18.4354C12.7621 19.399 11.3869 19.4124 10.8603 18.4589L9.2 15.4525C9.07342 15.2233 8.88378 15.0352 8.65356 14.9105L5.61502 13.2647C4.66949 12.7526 4.65631 11.4003 5.59169 10.8698L8.59758 9.16516C8.82533 9.036 9.01126 8.84424 9.13335 8.61263L10.7348 5.57447Z" fill="#FAE27C"/>
</svg>
