<svg width="40" height="44" viewBox="0 0 40 44" fill="none" xmlns="http://www.w3.org/2000/svg">
<path d="M0 37.4C0 41.0451 3.19797 44 7.14286 44H32.8571C36.802 44 40 41.0451 40 37.4V18.48C40 8.27378 31.0457 2.38419e-07 20 2.38419e-07C8.95431 2.38419e-07 0 8.27378 0 18.48V37.4Z" fill="#454545"/>
<path fill-rule="evenodd" clip-rule="evenodd" d="M13.9433 11.4453C9.88737 11.4453 5.6842 14.1866 5.6842 18.1347V43.1204C5.6842 43.6064 6.1106 44.0004 6.63658 44.0004H33.3635C33.8894 44.0004 34.3158 43.6064 34.3158 43.1204C34.3158 34.7903 34.3158 26.4579 34.3158 18.1302C34.3158 14.1834 30.1084 11.4453 26.0567 11.4453C23.836 11.4453 21.82 12.1552 20.3358 13.31C20.1426 13.4603 19.8575 13.4603 19.6643 13.31C18.18 12.1552 16.164 11.4453 13.9433 11.4453Z" fill="#E5E5E5"/>
<path d="M14.5279 28.5006C13.8398 27.6587 13.8954 26.484 14.6603 25.7008L18.2266 22.0495C19.1721 21.0814 20.8162 21.0814 21.7617 22.0495L25.328 25.7008C26.0929 26.484 26.1485 27.6587 25.4605 28.5006L21.8942 32.8642C20.9416 34.0298 19.0467 34.0298 18.0941 32.8642L14.5279 28.5006Z" fill="#E96F00"/>
<path d="M29.5238 21.1205C29.5238 19.6624 28.2446 18.4805 26.6667 18.4805C25.0887 18.4805 23.8095 19.6624 23.8095 21.1205C23.8095 22.5785 25.0887 23.7605 26.6667 23.7605C28.2446 23.7605 29.5238 22.5785 29.5238 21.1205Z" fill="black"/>
<path d="M16.1905 21.1205C16.1905 19.6624 14.9113 18.4805 13.3333 18.4805C11.7554 18.4805 10.4762 19.6624 10.4762 21.1205C10.4762 22.5785 11.7554 23.7605 13.3333 23.7605C14.9113 23.7605 16.1905 22.5785 16.1905 21.1205Z" fill="black"/>
</svg>
