<svg width="20" height="20" viewBox="0 0 20 20" fill="none" xmlns="http://www.w3.org/2000/svg">
<path d="M2.50833 9.3501V13.0918C2.50833 16.8334 4.00833 18.3334 7.75 18.3334H12.2417C15.9833 18.3334 17.4833 16.8334 17.4833 13.0918V9.3501" stroke="#292D32" stroke-width="1.5" stroke-linecap="round" stroke-linejoin="round"/>
<path d="M10 10.0001C11.525 10.0001 12.65 8.75841 12.5 7.23341L11.95 1.66675H8.05833L7.5 7.23341C7.35 8.75841 8.475 10.0001 10 10.0001Z" stroke="#292D32" stroke-width="1.5" stroke-linecap="round" stroke-linejoin="round"/>
<path d="M15.2583 10.0001C16.9417 10.0001 18.175 8.63341 18.0083 6.95841L17.775 4.66675C17.475 2.50008 16.6417 1.66675 14.4583 1.66675H11.9167L12.5 7.50841C12.6417 8.88341 13.8833 10.0001 15.2583 10.0001Z" stroke="#292D32" stroke-width="1.5" stroke-linecap="round" stroke-linejoin="round"/>
<path d="M4.7 10.0001C6.075 10.0001 7.31667 8.88341 7.45 7.50841L7.63333 5.66675L8.03333 1.66675H5.49167C3.30833 1.66675 2.475 2.50008 2.175 4.66675L1.95 6.95841C1.78333 8.63341 3.01667 10.0001 4.7 10.0001Z" stroke="#292D32" stroke-width="1.5" stroke-linecap="round" stroke-linejoin="round"/>
<path d="M10 14.1667C8.60833 14.1667 7.91667 14.8584 7.91667 16.2501V18.3334H12.0833V16.2501C12.0833 14.8584 11.3917 14.1667 10 14.1667Z" stroke="#292D32" stroke-width="1.5" stroke-linecap="round" stroke-linejoin="round"/>
</svg>
