<svg width="45" height="44" viewBox="0 0 45 44" fill="none" xmlns="http://www.w3.org/2000/svg">
<path d="M43.7004 1.67773C43.5963 1.44188 43.4475 1.2279 43.2572 1.06022C41.761 -0.258316 40.2724 -0.18027 38.9145 0.4942C35.6095 2.13583 34.0806 4.31372 30.6831 4.90776C29.9537 5.0353 29.5616 5.97383 30.0543 6.55467L37.0161 14.7607C37.2349 15.0187 37.5767 15.1271 37.8897 15.0241C44.1691 12.9564 46.0295 6.95368 43.7004 1.67773Z" fill="#F58D2E"/>
<path d="M1.63295 1.65929C1.73707 1.42344 1.88588 1.20946 2.07616 1.04177C3.5724 -0.27676 5.06097 -0.198714 6.41886 0.475755C9.7239 2.11738 11.2528 4.29528 14.6503 4.88932C15.3797 5.01686 15.7718 5.95539 15.2791 6.53622L8.31733 14.7423C8.09848 15.0002 7.75665 15.1087 7.44368 15.0056C1.16424 12.938 -0.696168 6.93524 1.63295 1.65929Z" fill="#F58D2E"/>
<path d="M27.8718 41.6574C35.1607 39.5116 43.6755 33.9025 43.7572 29.0407C44.0088 14.0775 35.4631 2.60645 22.4865 2.60645C9.50999 2.60645 1.49347 14.3018 1.49347 29.0407C1.49347 33.2677 9.71808 39.6632 17.527 41.8175C18.8099 43.1619 20.6197 43.9995 22.6253 43.9995C24.7094 43.9995 26.5821 43.095 27.8718 41.6574Z" fill="#FF7A00"/>
<path fill-rule="evenodd" clip-rule="evenodd" d="M28.4029 22.6588C27.968 21.7894 28.3206 20.7322 29.1905 20.2975L31.516 19.1354C32.3859 18.7007 33.4437 19.0531 33.8786 19.9225C34.3136 20.7919 33.961 21.8491 33.0911 22.2838L30.7655 23.4459C29.8957 23.8806 28.8379 23.5282 28.4029 22.6588Z" fill="black"/>
<path fill-rule="evenodd" clip-rule="evenodd" d="M17.0432 22.6511C17.4738 21.7795 17.116 20.7241 16.244 20.2937L13.8896 19.1316C13.0176 18.7011 11.9615 19.0587 11.5309 19.9303C11.1002 20.8018 11.458 21.8572 12.33 22.2877L14.6845 23.4498C15.5565 23.8802 16.6125 23.5226 17.0432 22.6511Z" fill="black"/>
<path fill-rule="evenodd" clip-rule="evenodd" d="M22.6254 7.92305C19.5313 7.92305 16.9211 8.7826 14.83 10.2449C14.0332 10.8021 12.9352 10.6083 12.3776 9.81197C11.82 9.01564 12.0139 7.91834 12.8108 7.36109C15.5272 5.46142 18.8509 4.40332 22.6254 4.40332C26.3998 4.40332 29.7235 5.46142 32.4399 7.36109C33.2368 7.91834 33.4307 9.01564 32.8731 9.81197C32.3155 10.6083 31.2175 10.8021 30.4207 10.2449C28.3297 8.7826 25.7195 7.92305 22.6254 7.92305Z" fill="black"/>
<path fill-rule="evenodd" clip-rule="evenodd" d="M22.6254 13.6426C21.2213 13.6426 20.0844 13.9178 19.2192 14.3424C18.3463 14.7708 17.291 14.4108 16.8623 13.5384C16.4336 12.666 16.7938 11.6114 17.6668 11.183C19.0851 10.487 20.7669 10.1229 22.6254 10.1229C24.4839 10.1229 26.1656 10.487 27.5839 11.183C28.4569 11.6114 28.8171 12.666 28.3884 13.5384C27.9597 14.4108 26.9045 14.7708 26.0315 14.3424C25.1663 13.9178 24.0295 13.6426 22.6254 13.6426Z" fill="black"/>
<path fill-rule="evenodd" clip-rule="evenodd" d="M38.1255 19.6765C39.0459 19.3625 40.0468 19.8537 40.3609 20.7735C40.6415 21.5949 40.9917 23.0774 41.2175 24.5347C41.3318 25.2728 41.4207 26.0449 41.4492 26.7566C41.476 27.4282 41.4574 28.2027 41.2681 28.865C41.0747 29.5414 40.701 30.1462 40.3406 30.6291C39.9681 31.1281 39.5348 31.5952 39.1242 31.9988C38.3855 32.7249 37.6262 33.335 37.2638 33.6262C37.2248 33.6576 37.1903 33.6852 37.161 33.7089C36.4051 34.3205 35.2963 34.204 34.6843 33.4486C34.0723 32.6932 34.1889 31.585 34.9448 30.9734C34.9787 30.946 35.0162 30.9158 35.0568 30.8831C35.4238 30.5877 36.0494 30.0843 36.6546 29.4894C36.9892 29.1605 37.2886 28.8313 37.5175 28.5245C37.7585 28.2017 37.8549 27.9915 37.8816 27.898C37.9124 27.7903 37.953 27.4732 37.93 26.897C37.9086 26.361 37.8386 25.7293 37.737 25.0733C37.5308 23.7423 37.2206 22.4751 37.0278 21.9105C36.7136 20.9907 37.2051 19.9905 38.1255 19.6765Z" fill="black"/>
<path fill-rule="evenodd" clip-rule="evenodd" d="M7.24821 19.6765C6.32779 19.3625 5.32694 19.8537 5.01276 20.7735C4.7322 21.5949 4.38198 23.0774 4.15621 24.5347C4.04187 25.2728 3.95296 26.0449 3.92452 26.7566C3.89769 27.4282 3.91626 28.2027 4.1056 28.865C4.29899 29.5414 4.67271 30.1462 5.03311 30.6291C5.40557 31.1281 5.83886 31.5952 6.24946 31.9988C6.98823 32.7249 7.74752 33.335 8.10991 33.6262C8.14895 33.6576 8.18339 33.6852 8.21269 33.7089C8.96857 34.3205 10.0775 34.204 10.6894 33.4486C11.3014 32.6932 11.1848 31.585 10.4289 30.9734C10.395 30.946 10.3575 30.9158 10.3169 30.8831C9.94989 30.5877 9.32432 30.0843 8.71915 29.4894C8.38449 29.1605 8.08511 28.8313 7.85617 28.5245C7.61518 28.2017 7.51879 27.9915 7.49206 27.898C7.46128 27.7903 7.42068 27.4732 7.4437 26.897C7.46511 26.361 7.53509 25.7293 7.63672 25.0733C7.84292 23.7423 8.15307 22.4751 8.34589 21.9105C8.66008 20.9907 8.16863 19.9905 7.24821 19.6765Z" fill="black"/>
<path fill-rule="evenodd" clip-rule="evenodd" d="M29.6112 26.9717C33.7767 26.9717 37.1535 30.3463 37.1535 34.5091C37.1535 38.672 33.7767 42.0466 29.6112 42.0466H28.9517C26.805 42.0466 24.8677 41.1503 23.4941 39.7117C23.0601 39.257 22.2779 39.257 21.8438 39.7117C20.4703 41.1503 18.533 42.0466 16.3862 42.0466H15.7268C11.5613 42.0466 8.18448 38.672 8.18448 34.5091C8.18448 30.3463 11.5613 26.9717 15.7268 26.9717H15.7417H16.3862H28.9517H29.2815H29.6112Z" fill="#FF9C42"/>
<path fill-rule="evenodd" clip-rule="evenodd" d="M19.1034 28.6011C19.1034 29.5731 19.8918 30.3611 20.8644 30.3611L24.3864 30.3611C25.359 30.3611 26.1474 29.5731 26.1474 28.6011C26.1474 27.6291 25.359 26.8411 24.3864 26.8411L20.8644 26.8411C19.8919 26.8411 19.1034 27.6291 19.1034 28.6011Z" fill="black"/>
</svg>
