<svg width="20" height="20" viewBox="0 0 20 20" fill="none" xmlns="http://www.w3.org/2000/svg">
<path d="M18.3333 9.99992V14.1666C18.3333 16.6666 16.6667 18.3333 14.1667 18.3333H5.83333C3.33333 18.3333 1.66667 16.6666 1.66667 14.1666V9.99992C1.66667 7.73325 3.03333 6.14992 5.15833 5.88325C5.375 5.84992 5.6 5.83325 5.83333 5.83325H14.1667C14.3833 5.83325 14.5917 5.84158 14.7917 5.87491C16.9417 6.12491 18.3333 7.71659 18.3333 9.99992Z" stroke="#8A8D8E" stroke-width="1.5" stroke-linecap="round" stroke-linejoin="round"/>
<path d="M14.7928 5.87508C14.5928 5.84175 14.3845 5.83342 14.1678 5.83342H5.83451C5.60117 5.83342 5.37617 5.85009 5.15951 5.88342C5.27617 5.65009 5.44284 5.43342 5.64284 5.23342L8.35117 2.51675C9.49284 1.38341 11.3428 1.38341 12.4845 2.51675L13.9428 3.99176C14.4762 4.51676 14.7595 5.18341 14.7928 5.87508Z" stroke="#8A8D8E" stroke-width="1.5" stroke-linecap="round" stroke-linejoin="round"/>
<path d="M18.3333 10.4167H15.8333C14.9167 10.4167 14.1667 11.1667 14.1667 12.0834C14.1667 13.0001 14.9167 13.7501 15.8333 13.7501H18.3333" stroke="#8A8D8E" stroke-width="1.5" stroke-linecap="round" stroke-linejoin="round"/>
</svg>
